<svg width="15" height="9" viewBox="0 0 15 9" fill="none" xmlns="http://www.w3.org/2000/svg">
<path d="M13.2193 3.14493L13.2194 3.14489L13.2139 3.14015C12.2166 2.27196 9.86315 0.5 7.06321 0.5C4.26328 0.5 1.90986 2.27196 0.912498 3.14015L0.912463 3.14011L0.907081 3.14493C0.659514 3.3668 0.5 3.67767 0.5 4.02376C0.5 4.36985 0.659514 4.68071 0.907081 4.90259L0.907047 4.90262L0.912498 4.90737C1.90986 5.77556 4.26328 7.54752 7.06321 7.54752C9.86315 7.54752 12.2166 5.77556 13.2139 4.90737L13.214 4.90741L13.2193 4.90259C13.4669 4.68071 13.6264 4.36985 13.6264 4.02376C13.6264 3.67767 13.4669 3.3668 13.2193 3.14493Z" stroke="#00AFF0" stroke-linecap="round" stroke-linejoin="round"/>
<path d="M7.06322 6.0356C8.26737 6.0356 9.43238 5.22871 9.43238 4.02372C9.43238 2.81873 8.26737 2.01184 7.06322 2.01184C5.85907 2.01184 4.69406 2.81873 4.69406 4.02372C4.69406 5.22871 5.85907 6.0356 7.06322 6.0356Z" stroke="#00AFF0" stroke-linecap="round" stroke-linejoin="round"/>
</svg>
