<svg width="15" height="14" viewBox="0 0 15 14" fill="none" xmlns="http://www.w3.org/2000/svg">
<g clip-path="url(#clip0_10_2)">
<path d="M13.6903 5.9C14.0975 6.24 14.4403 6.57 14.6975 6.83C14.8752 7.01375 14.9735 7.25248 14.9735 7.5C14.9735 7.74752 14.8752 7.98625 14.6975 8.17C13.5725 9.3 11.0118 11.5 8.02247 11.5H7.5939M4.6689 10.63C3.42779 9.98125 2.30637 9.15067 1.34747 8.17C1.16978 7.98625 1.07143 7.74752 1.07143 7.5C1.07143 7.25248 1.16978 7.01375 1.34747 6.83C2.47247 5.7 5.03318 3.5 8.02247 3.5C9.2008 3.52299 10.354 3.82216 11.376 4.37M13.9153 2L2.12961 13" stroke="#00AFF0" stroke-linecap="round" stroke-linejoin="round"/>
<path d="M6.51176 8.91C6.10934 8.53665 5.882 8.02958 5.87961 7.5C5.87961 6.96957 6.10538 6.46086 6.50724 6.08579C6.9091 5.71071 7.45415 5.5 8.02247 5.5C8.58987 5.50223 9.13317 5.71441 9.53318 6.09M9.88675 8.5C9.69602 8.8043 9.4225 9.05614 9.0939 9.23" stroke="#00AFF0" stroke-linecap="round" stroke-linejoin="round"/>
</g>
<defs>
<clipPath id="clip0_10_2">
<rect width="15" height="14" fill="white"/>
</clipPath>
</defs>
</svg>
